<?xml version="1.0" standalone="no"?>
<!DOCTYPE svg PUBLIC "-//W3C//DTD SVG 20010904//EN"
 "http://www.w3.org/TR/2001/REC-SVG-20010904/DTD/svg10.dtd">
<svg version="1.0" xmlns="http://www.w3.org/2000/svg"
 width="218.000000pt" height="209.000000pt" viewBox="0 0 218.000000 209.000000"
 preserveAspectRatio="xMidYMid meet">
<metadata>
Created by potrace 1.16, written by Peter Selinger 2001-2019
</metadata>
<g transform="translate(0.000000,209.000000) scale(0.100000,-0.100000)"
fill="#000000" stroke="none">
<path d="M1139 1874 c-15 -18 -46 -31 -92 -40 -18 -3 -36 -9 -41 -15 -6 -5
-18 -9 -28 -9 -10 0 -18 -6 -18 -12 0 -9 -3 -8 -10 2 -11 18 -12 17 -44 -44
-20 -38 -26 -63 -26 -112 l0 -63 -37 5 c-21 2 -63 9 -94 15 -36 7 -142 10
-285 7 -185 -4 -251 -9 -346 -28 l-118 -23 0 -153 c0 -91 4 -155 10 -159 6 -3
10 -12 10 -18 0 -7 -4 -6 -10 3 -7 12 -9 10 -7 -8 1 -14 5 -18 11 -12 13 13
26 13 26 -2 0 -6 7 -20 17 -30 9 -10 11 -18 6 -18 -6 0 -16 7 -23 15 -14 17
-40 20 -40 6 0 -5 8 -12 17 -14 17 -4 17 -5 1 -6 -17 -1 -18 -20 -18 -246 0
-238 1 -245 20 -245 11 0 20 7 20 15 0 8 9 15 20 15 29 0 70 21 70 37 0 7 5
13 10 13 6 0 10 6 9 13 -3 24 13 57 28 57 18 0 44 25 36 34 -4 3 1 6 10 6 9 0
17 -6 18 -12 0 -7 5 -3 11 9 6 12 20 24 31 27 l21 5 -22 24 c-12 13 -22 28
-22 35 0 6 -10 18 -22 26 -12 9 -17 16 -11 16 6 0 16 -7 23 -14 6 -8 31 -24
55 -36 48 -23 56 -43 54 -143 -2 -77 22 -112 76 -112 34 0 41 -5 70 -47 36
-51 39 -74 51 -319 7 -141 1 -206 -17 -178 -5 7 -9 10 -9 5 0 -5 -6 -3 -14 3
-8 7 -41 14 -73 17 -32 2 -71 9 -88 14 -16 5 -88 9 -160 8 -72 -1 -145 2 -162
6 l-33 8 0 -101 0 -101 158 1 c87 1 139 5 117 8 -29 5 -2 9 95 14 74 5 143 10
153 13 12 4 17 0 17 -15 0 -21 0 -21 599 -21 565 0 599 1 596 18 -22 109 -27
242 -15 378 l13 147 61 62 c34 33 74 69 89 79 33 20 57 71 57 119 0 66 11 93
43 112 18 10 69 56 115 102 l82 83 0 177 0 178 -103 32 c-56 18 -136 37 -177
42 -262 34 -359 43 -416 38 l-64 -6 0 63 c0 67 -12 92 -72 146 -16 13 -28 32
-28 41 0 26 -34 62 -61 65 -13 1 -43 5 -66 8 -30 4 -44 1 -54 -10z m-379 -449
c12 -13 38 -29 57 -36 25 -8 38 -20 49 -49 10 -25 26 -44 44 -51 25 -12 28
-19 34 -78 3 -36 9 -80 12 -97 6 -38 -4 -43 -99 -51 -52 -5 -71 -2 -85 9 -9 8
-34 18 -54 21 -21 3 -57 19 -80 35 -24 16 -74 40 -113 53 -55 18 -83 35 -128
79 -32 30 -74 65 -94 76 -34 22 -35 22 -12 30 13 4 26 9 29 9 3 1 21 8 40 17
37 16 176 45 245 51 111 10 131 8 155 -18z m930 -47 c90 -26 248 -93 273 -118
5 -4 -7 -17 -25 -28 -18 -12 -47 -33 -64 -47 -19 -16 -48 -27 -74 -30 -24 -2
-46 -8 -49 -13 -7 -10 -141 -52 -167 -52 -10 0 -33 -15 -52 -32 -33 -33 -34
-33 -125 -30 -50 1 -94 6 -98 10 -4 4 2 48 12 97 10 50 19 99 19 110 0 11 10
25 22 30 13 6 32 28 44 50 12 22 35 52 51 67 25 25 33 27 78 22 28 -3 97 -20
155 -36z"/>
</g>
</svg>
